<svg xmlns="http://www.w3.org/2000/svg" viewBox="0 0 500 500"><g id="freepik--background-simple--inject-135"><path d="M444.15,137.29S415.61,80.9,352.59,72.54s-107,32.37-153.38,53.26c-24.29,10.94-52,6.69-77.8,12C39,154.71,7.92,260.77,42.26,321.09c29.72,52.22,82,79.37,161.7,85.63s135.55,13.58,206.9-37.59S477.44,211.44,444.15,137.29Z" style="fill:#FC6011"></path><path d="M444.15,137.29S415.61,80.9,352.59,72.54s-107,32.37-153.38,53.26c-24.29,10.94-52,6.69-77.8,12C39,154.71,7.92,260.77,42.26,321.09c29.72,52.22,82,79.37,161.7,85.63s135.55,13.58,206.9-37.59S477.44,211.44,444.15,137.29Z" style="fill:#fff;opacity:0.7000000000000001"></path></g><g id="freepik--Plants--inject-135"><path d="M419,421.83s-30.58-46.65-26-57.35,20.64,7.64,20.64,7.64S390,309.42,406,295.66s21.41,56.58,21.41,56.58,14.52-40.52,26-25.23-17.58,47.41-17.58,47.41,19.88.76,14.52,13.76-19.88,26.76-19.88,26.76Z" style="fill:#FC6011"></path><path d="M410.59,411.12s-18.35-26-9.17-31.35,13.76,10.71,13.76,10.71.77-70.35,15.29-65,9.18,48.17,9.18,48.17S458,361.42,457.24,379,432,411.89,432,411.89" style="fill:none;stroke:#263238;stroke-linecap:round;stroke-linejoin:round"></path><line x1="427.42" y1="412.65" x2="411.36" y2="395.06" style="fill:none;stroke:#263238;stroke-linecap:round;stroke-linejoin:round"></line><line x1="428.18" y1="421.06" x2="427.42" y2="377.48" style="fill:none;stroke:#263238;stroke-linecap:round;stroke-linejoin:round"></line><line x1="428.94" y1="406.53" x2="443.47" y2="387.42" style="fill:none;stroke:#263238;stroke-linecap:round;stroke-linejoin:round"></line><polygon points="441.94 408.06 401.42 408.06 405.47 444 437.89 444 441.94 408.06" style="fill:#263238;stroke:#263238;stroke-linecap:round;stroke-linejoin:round"></polygon></g><g id="freepik--Device--inject-135"><rect x="181.01" y="51.39" width="207.85" height="392.61" rx="7.67" style="fill:#fff;stroke:#263238;stroke-linecap:round;stroke-linejoin:round"></rect><path d="M305.52,73.06H264.35a2.81,2.81,0,0,1-2.81-2.81h0a2.81,2.81,0,0,1,2.81-2.81h41.17a2.81,2.81,0,0,1,2.81,2.81h0A2.81,2.81,0,0,1,305.52,73.06Z" style="fill:#263238"></path><path d="M296.16,418.19a11.23,11.23,0,1,0-11.23,11.23A11.23,11.23,0,0,0,296.16,418.19Z" style="fill:#fff;stroke:#263238;stroke-linecap:round;stroke-linejoin:round;stroke-width:0.704333px"></path><rect x="279.24" y="412.5" width="11.38" height="11.38" style="fill:#263238"></rect><rect x="190.25" y="94.5" width="189.37" height="306.39" style="fill:#FC6011;stroke:#263238;stroke-linecap:round;stroke-linejoin:round"></rect><rect x="190.25" y="94.5" width="189.37" height="19.66" style="fill:#263238;stroke:#263238;stroke-linecap:round;stroke-linejoin:round"></rect><line x1="275.96" y1="118.99" x2="297.2" y2="118.99" style="fill:none;stroke:#263238;stroke-linecap:round;stroke-linejoin:round"></line><line x1="262.52" y1="122.89" x2="313.24" y2="122.89" style="fill:none;stroke:#263238;stroke-linecap:round;stroke-linejoin:round"></line><path d="M220.89,152.87a1.12,1.12,0,0,1-1-1.62l16.43-33.15a1.1,1.1,0,0,1,1-.62,1.13,1.13,0,0,1,1,.65l15,32.57a1.12,1.12,0,1,1-2,.94l-14-30.44-15.38,31A1.13,1.13,0,0,1,220.89,152.87Z" style="fill:#263238"></path><path d="M216.28,148.58h40.64l10.21,33.87a11,11,0,0,1-1.71,9.78h0a11,11,0,0,1-8.88,4.48H217.88a11.08,11.08,0,0,1-8.95-4.56l-.44-.61A11.06,11.06,0,0,1,206.8,182Z" style="fill:#fff;stroke:#263238;stroke-linecap:round;stroke-linejoin:round"></path><path d="M298.46,153.19h69.17a0,0,0,0,1,0,0V189a7.72,7.72,0,0,1-7.72,7.72H306.18a7.72,7.72,0,0,1-7.72-7.72v-35.8A0,0,0,0,1,298.46,153.19Z" style="fill:#fff;stroke:#263238;stroke-linecap:round;stroke-linejoin:round"></path><path d="M298.46,153.19l7.47,19.46a8.29,8.29,0,0,0,7.74,5.32h39.42a8.29,8.29,0,0,0,7.83-5.56l6.71-19.22" style="fill:none;stroke:#263238;stroke-linecap:round;stroke-linejoin:round"></path><rect x="326.7" y="174.51" width="15.27" height="6.63" style="fill:#fff;stroke:#263238;stroke-linecap:round;stroke-linejoin:round"></rect><polygon points="321.8 152.9 294.42 181.43 296.15 184.03 325.84 153.47 321.8 152.9" style="fill:#fff;stroke:#263238;stroke-linecap:round;stroke-linejoin:round"></polygon><rect x="219.26" y="203.61" width="34.34" height="11.2" rx="5" style="fill:#263238"></rect><rect x="314.35" y="203.61" width="34.34" height="11.2" rx="5" style="fill:#263238"></rect><path d="M256.73,249.07a1.13,1.13,0,0,1-1.09-.86c0-.19-4.52-18.21-18.09-17.3-14.14.94-19.18,16.56-19.23,16.72a1.13,1.13,0,0,1-1.41.74,1.11,1.11,0,0,1-.73-1.4c0-.18,5.53-17.25,21.22-18.29,15.43-1,20.37,18.81,20.42,19A1.11,1.11,0,0,1,257,249,.78.78,0,0,1,256.73,249.07Z" style="fill:#263238"></path><path d="M215.76,244.78s15,4.89,41.79,0l5.18,31.64a8.6,8.6,0,0,1-1.5,6.41l-.54.74a8.58,8.58,0,0,1-7,3.57h-34a8.58,8.58,0,0,1-7.74-4.87h0a8.62,8.62,0,0,1-.77-4.9Z" style="fill:#fff;stroke:#263238;stroke-linecap:round;stroke-linejoin:round"></path><path d="M257.55,244.78S257,267,237.66,267s-21.9-22.19-21.9-22.19" style="fill:none;stroke:#263238;stroke-linecap:round;stroke-linejoin:round"></path><rect x="232.18" y="262.36" width="10.38" height="8.93" style="fill:none;stroke:#263238;stroke-linecap:round;stroke-linejoin:round"></rect><path d="M314.93,243.3a1.13,1.13,0,0,1-1-1.62l16.43-24.24a1.08,1.08,0,0,1,1-.62,1.13,1.13,0,0,1,1,.65l15,23.67a1.12,1.12,0,0,1-.55,1.48,1.13,1.13,0,0,1-1.49-.55l-14-21.53-15.39,22.14A1.12,1.12,0,0,1,314.93,243.3Z" style="fill:#263238"></path><path d="M310.32,239H351l10.22,33.88a11.07,11.07,0,0,1-1.71,9.78h0a11.07,11.07,0,0,1-8.89,4.47H311.92a11.07,11.07,0,0,1-8.95-4.55l-.44-.61a11.07,11.07,0,0,1-1.7-9.52Z" style="fill:#fff;stroke:#263238;stroke-linecap:round;stroke-linejoin:round"></path><polygon points="306.23 253.42 303.45 263.22 358.25 263.22 355.3 253.42 306.23 253.42" style="fill:#263238"></polygon><path d="M300.83,272.46a11.08,11.08,0,0,0,1.12,8.63h58.47a11,11,0,0,0,.75-8.2l-.49-1.6H301.16Z" style="fill:#263238"></path><polygon points="310.32 239.01 308.52 245.35 352.87 245.35 350.95 239.01 310.32 239.01" style="fill:#263238"></polygon><rect x="219.26" y="292.15" width="34.34" height="11.2" rx="5" style="fill:#263238"></rect><rect x="314.35" y="292.15" width="34.34" height="11.2" rx="5" style="fill:#263238"></rect><path d="M222.86,339.65a1.12,1.12,0,0,1-1.12-1.12V328.3A14.25,14.25,0,0,1,236,314.07h.29A14.25,14.25,0,0,1,250.5,328.3V338a1.12,1.12,0,0,1-2.24,0V328.3a12,12,0,0,0-12-12H236a12,12,0,0,0-12,12v10.23A1.12,1.12,0,0,1,222.86,339.65Z" style="fill:#263238"></path><path d="M214.27,334.25s13.2,4,44.71,0l5.55,33.85a9.18,9.18,0,0,1-1.61,6.85l-.57.8a9.19,9.19,0,0,1-7.46,3.82H218.51a9.2,9.2,0,0,1-8.28-5.21h0a9.28,9.28,0,0,1-.82-5.24Z" style="fill:#fff;stroke:#263238;stroke-linecap:round;stroke-linejoin:round"></path><path d="M222.57,373.41a11.82,11.82,0,0,0-11.81-11.82h-.3l-1.05,7.52a9.28,9.28,0,0,0,.82,5.24h0a9.2,9.2,0,0,0,8.28,5.21h2.31A11.67,11.67,0,0,0,222.57,373.41Z" style="fill:#263238"></path><path d="M250.82,373.41a11.67,11.67,0,0,0,1.75,6.16h2.32a9.19,9.19,0,0,0,7.46-3.82l.57-.8a9.18,9.18,0,0,0,1.61-6.85l-1.06-6.47c-.28,0-.55,0-.84,0A11.82,11.82,0,0,0,250.82,373.41Z" style="fill:#263238"></path><line x1="235.83" y1="336.23" x2="235.83" y2="379.75" style="fill:none;stroke:#263238;stroke-linecap:round;stroke-linejoin:round"></line><rect x="299.61" y="343.14" width="62.83" height="36.6" rx="2.57" style="fill:#fff;stroke:#263238;stroke-linecap:round;stroke-linejoin:round"></rect><path d="M299.9,344.87l28.05,21a4.56,4.56,0,0,0,5.54,0l27.8-21.5" style="fill:none;stroke:#263238;stroke-linecap:round;stroke-linejoin:round"></path><path d="M327.28,343.43h6.34a0,0,0,0,1,0,0v26a2.83,2.83,0,0,1-2.83,2.83h-.68a2.83,2.83,0,0,1-2.83-2.83v-26A0,0,0,0,1,327.28,343.43Z" style="fill:#fff;stroke:#263238;stroke-linecap:round;stroke-linejoin:round"></path><rect x="219.26" y="384.73" width="34.34" height="11.2" rx="5" style="fill:#263238"></rect><rect x="314.35" y="384.73" width="34.34" height="11.2" rx="5" style="fill:#263238"></rect></g><g id="freepik--Character--inject-135"><path d="M83.39,263s-6.72,11.76-8.68,35.28,10.92,46.19,17.92,57.39-1.68,21.27-2.8,28S89.27,402.38,96,410.5s8.4,22.12,8.12,26.87.56,5.88,2,5.88,26.87,1.68,31.07,0l6.72-.56s1.12-2.52-1.12-3.64-9-3.36-11.2-7.55S129,420,129.86,416.66s6.16-20.16,7.28-30.52,1.68-28.55,1.68-32.75,10.36-17.36,11.76-33S146.66,273,146.66,273Z" style="fill:#fff;stroke:#263238;stroke-linecap:round;stroke-linejoin:round"></path><path d="M142.74,439.05c-2.24-1.12-9-3.36-11.2-7.55a16.58,16.58,0,0,1-1.39-3.9c-1,.1-4.41.58-5.61,2.5a8.17,8.17,0,0,1-3.92,3.08l-6.16-.56s-.28,5.87.84,8.67c.32.78-1,1.12.09,2,7.85.29,22,.94,25.57.23l2.9-.8S145,440.17,142.74,439.05Z" style="fill:#FC6011;stroke:#263238;stroke-linecap:round;stroke-linejoin:round"></path><path d="M133.22,439.89c-4.48-1.4-10.64-6.15-12.32-8.11a12.12,12.12,0,0,0-3.36-2.8s-3.64-1.4-4.76,1.4l-1.12,2.8-7.74-.65a34.06,34.06,0,0,1,.19,4.84c-.28,4.76.56,5.88,2,5.88,1.24,0,21.63,1.34,29,.44C135.43,442.1,135.19,440.51,133.22,439.89Z" style="fill:#FC6011;stroke:#263238;stroke-linecap:round;stroke-linejoin:round"></path><path d="M129.86,416.66c.84-3.36,6.16-20.16,7.28-30.52s1.68-28.55,1.68-32.75,10.36-17.36,11.76-33S146.66,273,146.66,273L83.39,263s-6.72,11.76-8.68,35.28,10.92,46.19,17.92,57.39-1.68,21.27-2.8,28S89.27,402.38,96,410.5a31.43,31.43,0,0,1,5,9.09c3,1.41,7.86,2,15.16-2.09,0,0,5.17,4.09,13.37,1.48A14.65,14.65,0,0,1,129.86,416.66Z" style="fill:#263238;stroke:#263238;stroke-linecap:round;stroke-linejoin:round"></path><path d="M130.42,308l-7.56,4.19s-1.12,37.8-1.12,51.24S118.1,380.82,117,399.3s.56,29.68.56,29.68" style="fill:none;stroke:#7d7d7d;stroke-linecap:round;stroke-linejoin:round"></path><path d="M144.82,201.38s9.63,3.29,13.16,12.22,4.46,25.61,4.46,34.07,2.82,15.5-.94,20.91-11.28,4.7-14.8-.24-3.06-8-1.65-19,.94-32.19-.23-36.42-5.41-11.75-5.41-11.75S142.7,200,144.82,201.38Z" style="fill:#FC6011;stroke:#263238;stroke-linecap:round;stroke-linejoin:round"></path><path d="M162.88,254.26a10.68,10.68,0,0,0-1-.9,14.15,14.15,0,0,0-13.25-2.84l-4.35,5c-.67,6.27-.36,9,2.4,12.85,3.52,4.94,11,5.64,14.8.24C164.24,264.65,163.49,259.84,162.88,254.26Z" style="fill:#fff;stroke:#263238;stroke-linecap:round;stroke-linejoin:round"></path><path d="M145.76,261.06s1.64-7.05,5.17-8.23,10.34,2.12,12.69,6.35-2.35,10.34-2.35,10.34,4.23-.94,4.7-9.64-9.4-12-14.1-12.21S144.58,257.77,145.76,261.06Z" style="fill:#fff;stroke:#263238;stroke-linecap:round;stroke-linejoin:round"></path><path d="M150.22,218.53a102.71,102.71,0,0,1,2.35,23c-.23,8.46-4.7,14.33-4.93,18.79s1.88,12.46,1.17,13.63-12.68,8-28.43,6.35S86.08,274.45,83,269.05s3.06-43.24,3.29-47.47,4-23,11.28-25.37S122,194.09,122,194.09s18.79,5.64,19.5,5.88-3.06-1.41,2.11.94,6.11,9.63,6.35,10.81" style="fill:#FC6011;stroke:#263238;stroke-linecap:round;stroke-linejoin:round"></path><path d="M117.56,189.39s-5.64,3.53-5.64,5.88S114.51,219,114.51,219L131.43,212l13.39,7.75S142,207,139.41,201.14a21.21,21.21,0,0,0-12.68-12C121.09,187.28,117.56,189.39,117.56,189.39Z" style="fill:#fff;stroke:#263238;stroke-linecap:round;stroke-linejoin:round"></path><path d="M117.8,191s1.88,10.33,3.76,15c2.35,5.87,7.05,16.68,7.05,16.68s4.7-7.52,6.11-13.86,2.81-16.69,2.81-16.69-15.74-4.46-16.44-4.93S116.86,188.69,117.8,191Z" style="fill:#fff;stroke:#263238;stroke-linecap:round;stroke-linejoin:round"></path><path d="M161.74,145.22s-12.69-13.63-24-12.45-24,17.85-29.84,28,2.35,29.6,14.1,33.36,17.38,1.41,17.38,1.41,8.46,6.35,16.45,1.65,8.23-11.52,7.52-17.39,6.11-6.81,8.46-14.1S161.74,145.22,161.74,145.22Z" style="fill:#263238;stroke:#263238;stroke-linecap:round;stroke-linejoin:round"></path><path d="M154.22,158.38s-.94,3.05,2.35,9.63,3.76,10.34,3.29,14.57S156.33,191,153,194.09s-8,5.41-12.45,4.7-8.22-7.28-8.22-8.22S127.2,165.9,154.22,158.38Z" style="fill:#fff;stroke:#263238;stroke-linecap:round;stroke-linejoin:round"></path><path d="M155.63,175.77,154,177.88s-1.17,6.58-1.88,6.58a24.06,24.06,0,0,1-3.52-.94" style="fill:none;stroke:#263238;stroke-linecap:round;stroke-linejoin:round"></path><path d="M146.23,188.45s-4.23-.23-3.76-3.52" style="fill:none;stroke:#263238;stroke-linecap:round;stroke-linejoin:round"></path><path d="M148,175.24c-.56,1.24-1.54,2-2.19,1.72s-.73-1.54-.17-2.78,1.53-2,2.19-1.72S148.55,174,148,175.24Z" style="fill:#263238"></path><path d="M158.1,178.53c-.56,1.24-1.54,2-2.19,1.72s-.73-1.54-.17-2.78,1.54-2,2.19-1.72S158.66,177.28,158.1,178.53Z" style="fill:#263238"></path><path d="M144.82,169.42s3.52-2.35,6.81.24" style="fill:none;stroke:#263238;stroke-linecap:round;stroke-linejoin:round"></path><path d="M156.57,173.65a2.12,2.12,0,0,1,2.82.71" style="fill:none;stroke:#263238;stroke-linecap:round;stroke-linejoin:round"></path><path d="M106.2,195.39s-13.31.35-20.83,2.93-9.63,15.75-9.63,22.32S73.62,266.7,75,269.52s50.29-19,50.29-19,.94.94,3.52.94a9.23,9.23,0,0,0,4.47-1.17l-.47,3.05s-4,1.65-2.35,2.82,7.75-1.17,8.45-1.64,7.05-2.35,8.23-4.23-.94-7.05-.94-7.05a54.49,54.49,0,0,1,5.4,3.29c1.88,1.41,3.53,2.59,4.47,0s-5.64-5.17-8-6.58a11.65,11.65,0,0,0-7.76-2.11c-3.52.23-19.5,5.87-19.5,5.87s-.9.21-7,.71-20,.94-20,.94l6.11-25.85" style="fill:#fff;stroke:#263238;stroke-linecap:round;stroke-linejoin:round"></path><path d="M116.82,243.85s-1.3,6,2.28,9.13l3.1-1s-2.87-4.85-1.35-8.33C121.06,243.19,118,243,116.82,243.85Z" style="fill:#263238"></path><ellipse cx="118.29" cy="247.19" rx="2.61" ry="2.53" style="fill:#fff;stroke:#263238;stroke-linecap:round;stroke-linejoin:round"></ellipse><path d="M137.3,245.79s3.76,7,1.64,8.69" style="fill:none;stroke:#263238;stroke-linecap:round;stroke-linejoin:round"></path><path d="M141.53,243.2s4.23,4.94,2.11,8.69" style="fill:none;stroke:#263238;stroke-linecap:round;stroke-linejoin:round"></path><path d="M106.2,195.39c-4.17.23-16.15,1.32-20.83,2.93-7.52,2.59-9.63,15.75-9.63,22.32,0,5.57-1.52,34.7-1.13,45.23,4.43-15.12,19.22-20.55,19.22-20.55l7.23-28.45" style="fill:#FC6011;stroke:#263238;stroke-linecap:round;stroke-linejoin:round"></path><path d="M93.83,245.32s-8,6.81-10.57,14.8-1.41,8-1.41,8a4.94,4.94,0,0,1-3.06,3.52c-2.58.94-7.52-1.64-8-4.93s.94-6.11,6.82-14.1S91,243.2,93.83,245.32Z" style="fill:#fff;stroke:#263238;stroke-linecap:round;stroke-linejoin:round"></path><polygon points="164.32 242.26 151.87 260.82 164.32 261.76 178.42 243.2 164.32 242.26" style="fill:#263238;stroke:#263238;stroke-linecap:round;stroke-linejoin:round"></polygon><path d="M155.39,260.82s-3.76,1.41-.7,3.76,8,1.41,9.63-1.64S155.39,260.82,155.39,260.82Z" style="fill:#fff;stroke:#263238;stroke-linecap:round;stroke-linejoin:round"></path><path d="M165.26,260.82s-8.46-2.58-9.87,0,7.52,3.53,9.64,3.53S166.44,261.29,165.26,260.82Z" style="fill:#fff;stroke:#263238;stroke-linecap:round;stroke-linejoin:round"></path><path d="M168.55,258.71s-8.46-2.59-9.87,0,7.52,3.52,9.64,3.52S169.73,259.18,168.55,258.71Z" style="fill:#fff;stroke:#263238;stroke-linecap:round;stroke-linejoin:round"></path><path d="M170.9,255s-8.46-2.59-9.87,0,7.52,3.52,9.63,3.52S172.07,255.42,170.9,255Z" style="fill:#fff;stroke:#263238;stroke-linecap:round;stroke-linejoin:round"></path></g><g id="freepik--Floor--inject-135"><line x1="63" y1="444" x2="475" y2="444" style="fill:none;stroke:#263238;stroke-linecap:round;stroke-linejoin:round"></line><line x1="36" y1="444" x2="49" y2="444" style="fill:none;stroke:#263238;stroke-linecap:round;stroke-linejoin:round"></line></g></svg>