<svg xmlns="http://www.w3.org/2000/svg" data-name="Layer 1" viewBox="0 0 700 550"><path fill="#d5efc8" d="M420.21538,480.23511c15.11423-4.72494,28.67519-9.55219,44.98926-18.71374,16.82563-9.44989,91.569-54.42055,101.28863-132.25188a148.45941,148.45941,0,0,0-6.19451-63.39608c-3.00425-8.80811-9.236-26.49874-24.96407-43.994-19.25321-21.42966-41.22233-29.73551-54.10431-34.43255a156.11231,156.11231,0,0,0-60.66156-9.01274c-11.68214.38135-32.30261,1.237-55.7413,11.47752-15.291,6.67817-24.79665,14.29574-38.80405,25.68025-22.19235,18.05337-25.11289,25.56863-63.93554,62.84731-10.659,10.23118-19.42063,18.2952-32.79557,26.23831-9.27316,5.50623-16.76982,8.58489-30.60051,14.20273-33.9954,13.81209-43.67463,16.6087-54.7987,24.38439-21.63429,15.13284-20.233,31.63594-21.16312,35.18895a69.876,69.876,0,0,0-1.64629,27.8753c2.83683,18.66724,12.89128,30.87024,19.1323,38.25529a105.19309,105.19309,0,0,0,30.60051,24.592,195.551,195.551,0,0,0,25.07568,11.059Z"/><path fill="#d5efc8" d="M468.20094,467.04135l-.456-.81112c22.22991-12.48877,95.51942-59.30793,105.26737-137.411a154.62034,154.62034,0,0,0-6.43081-65.825c-2.76852-8.12163-9.25384-27.14068-25.9013-45.66424-20.38786-22.68634-43.66415-31.17584-56.16882-35.73645a161.945,161.945,0,0,0-63.012-9.3651c-11.55639.376-33.066,1.07589-57.89278,11.91608l-.37241-.852c24.99026-10.91241,47.44362-11.64269,58.23431-11.99329a162.77117,162.77117,0,0,1,63.3608,9.42051c12.581,4.58831,35.99895,13.12958,56.543,35.989C558.147,235.37346,564.675,254.51831,567.46258,262.694a155.621,155.621,0,0,1,6.4726,66.24058C564.13364,407.47,490.52713,454.49808,468.20094,467.04135Z"/><path fill="#ffba55" d="M196.11158,158.00366l7.27252,38.30051,14.84174,5.52388,14.84-5.52388,7.27252-38.30051Z"/><path fill="#6b3832" d="M257.30476,142.41975a7.18357,7.18357,0,0,0-7.77874-1.41444,5.7525,5.7525,0,0,0-2.98574,3.45743c-.0584.20889-.74132,2.80734.8643,4.47862.75582.78671,2.169,1.52441,3.14283,1.02139a1.56482,1.56482,0,0,0,.86431-1.25713c-.00427-.441-.31823-.5318-.47127-1.10005-.17265-.64092-.04433-1.53209.39283-1.72861.46508-.20909,1.27844.36853,1.65,1.0214.69229,1.21663.08035,3.09977-.969,4.16443-1.70026,1.725-4.49524,1.24669-5.65731,1.04782a11.19156,11.19156,0,0,1-6.4956-3.98113,10.31158,10.31158,0,0,1-2.51426-4.60969,11.74106,11.74106,0,0,1,.20952-5.02874c.66352-3.18354,1.48733-3.65523,2.9333-7.75274,1.09621-3.10616,1.64058-4.70433,1.46687-6.91443a8.88277,8.88277,0,0,0-1.88591-5.23826,8.5708,8.5708,0,0,0-5.6573-2.93331,9.24356,9.24356,0,0,0-7.33348,2.93331l-2.61913-2.96933s3.14283-1.16889-1.41422-9.02628l.86409-.668a36.15713,36.15713,0,0,0-72.31426,0l-3.6629,98.15216h-1.26075a2.82866,2.82866,0,1,0,0,5.65731h1.04952l-.44035,11.80356h-.60917a2.82866,2.82866,0,1,0,0,5.65731h.39815l-9.17718,245.91881h-.54523a3.562,3.562,0,1,0,0,7.124h39.28695a3.562,3.562,0,1,0,0-7.124h-.85983l-9.17718-245.91881h.39858a2.82866,2.82866,0,1,0,0-5.65731h-.6096l-.44035-11.80356h1.04995a2.82866,2.82866,0,1,0,0-5.65731H165.736l-3.6629-98.15216a25.6806,25.6806,0,0,1,51.36121,0l.86452.668c-4.55748,7.85739-1.41444,9.02628-1.41444,9.02628l-2.61913,2.96933a9.24356,9.24356,0,0,0-7.33348-2.93331,8.5708,8.5708,0,0,0-5.6573,2.93331,8.88277,8.88277,0,0,0-1.88591,5.23826c-.17371,2.2101.37066,3.80827,1.46687,6.91443,1.446,4.09751,2.26978,4.5692,2.9333,7.75274a11.74106,11.74106,0,0,1,.20952,5.02874,10.31158,10.31158,0,0,1-2.51426,4.60969,11.19156,11.19156,0,0,1-6.4956,3.98113c-1.16207.19887-3.957.67717-5.65731-1.04782-1.04931-1.06466-1.66125-2.9478-.969-4.16443.37152-.65287,1.18488-1.23049,1.65-1.0214.43716.19652.56548,1.08769.39283,1.72861-.153.56825-.467.65905-.47127,1.10005a1.56482,1.56482,0,0,0,.86431,1.25713c.97386.503,2.387-.23468,3.14283-1.02139,1.60562-1.67128.9227-4.26973.8643-4.47862a5.7525,5.7525,0,0,0-2.98574-3.45743,7.18357,7.18357,0,0,0-7.77874,1.41444,7.687,7.687,0,0,0-2.35739,5.10739c-.1573,4.42511,4.03975,7.4296,5.186,8.25021,4.04,2.89217,8.5028,3.0158,11.78609,3.06439,8.78883.13,16.58846.18118,24.01722.16157,7.429.01961,15.2286-.03155,24.01743-.16157,3.28329-.04859,7.74613-.17222,11.78609-3.06439,1.14629-.82061,5.34334-3.8251,5.186-8.25021A7.687,7.687,0,0,0,257.30476,142.41975Z"/><path fill="#6b3832" d="M196.11158,158.00366l7.27252,38.30051,14.84174,5.52388,14.84-5.52388,7.27252-38.30051Zm2.10758,1.74608h19.13363v39.88973l-12.43746-4.62781Zm33.31547,35.26192-12.43575,4.62781V159.74974h19.13193Z"/><circle cx="218.21" cy="203.209" r="3.693" fill="#6b3832"/><path fill="#8b9d36" d="M536.97415,479.77733l.72846-.43781c-.20528-.34061-20.5005-34.16325-23.65959-42.58871l-.79568.29792C516.43459,445.54776,536.1376,478.38308,536.97415,479.77733Z"/><path fill="#8b9d36" d="M520.5235 419.01521a36.48308 36.48308 0 00-1.96175 6.5753 61.47142 61.47142 0 00-1.00264 6.66657 60.24653 60.24653 0 00-.27617 6.73561 35.99012 35.99012 0 00.69248 6.82772 36.02231 36.02231 0 001.96632-6.57493 60.34607 60.34607 0 00.99808-6.667 61.4702 61.4702 0 00.2716-6.736A36.4501 36.4501 0 00520.5235 419.01521zM528.0139 429.25682a34.79807 34.79807 0 00-2.54559 6.19956 58.44274 58.44274 0 00-1.59934 6.38128 57.55147 57.55147 0 00-.88281 6.5189 34.41789 34.41789 0 00.073 6.70239 34.38652 34.38652 0 002.55015-6.19868 57.55081 57.55081 0 001.59478-6.38222 58.53966 58.53966 0 00.87824-6.51973A34.83116 34.83116 0 00528.0139 429.25682zM532.141 441.17986a29.52616 29.52616 0 00-2.167 5.76246 49.05236 49.05236 0 00-1.21247 5.89867 48.23156 48.23156 0 00-.49054 6.00172 29.15421 29.15421 0 00.47271 6.13923 29.15542 29.15542 0 002.17157-5.76184 48.14838 48.14838 0 001.2079-5.8993 49.05148 49.05148 0 00.486-6.00239A29.49733 29.49733 0 00532.141 441.17986zM537.33832 453.08087a22.60456 22.60456 0 00-2.19727 4.90391 36.8345 36.8345 0 00-1.24729 5.06791 36.15268 36.15268 0 00-.52869 5.192 22.34162 22.34162 0 00.43 5.35755 22.32546 22.32546 0 002.20183-4.90314 36.21344 36.21344 0 001.24315-5.06868 36.89658 36.89658 0 00.52413-5.19277A22.6035 22.6035 0 00537.33832 453.08087zM541.924 460.51943a20.35112 20.35112 0 00-2.3196 4.30582 35.09015 35.09015 0 00-1.45835 4.4667 40.09709 40.09709 0 00-.88074 4.58063c-.09537.77749-.18286 1.55062-.24091 2.33868a17.4054 17.4054 0 01-.25626 2.39465 4.70036 4.70036 0 00.56393-.356l.45779-.45872a8.46515 8.46515 0 00.8007-1.0015 16.04143 16.04143 0 001.23113-2.14265 23.86041 23.86041 0 001.61551-4.518 26.74389 26.74389 0 00.76048-4.70431A17.7094 17.7094 0 00541.924 460.51943zM516.06965 442.15788a29.25526 29.25526 0 00-5.16664-4.48023 47.88063 47.88063 0 00-5.71068-3.40533 47.03864 47.03864 0 00-6.12285-2.59177 28.92 28.92 0 00-6.67186-1.50661 28.91219 28.91219 0 005.16374 4.48536 47.04259 47.04259 0 005.71359 3.4002 47.85792 47.85792 0 006.12533 2.58664A29.25226 29.25226 0 00516.06965 442.15788zM521.14466 451.63708a36.0386 36.0386 0 00-6.37247-4.17162 60.00173 60.00173 0 00-6.79626-3.04375 58.927 58.927 0 00-7.11679-2.19022 35.62718 35.62718 0 00-7.54429-1.05163 35.63453 35.63453 0 006.37 4.177 58.93767 58.93767 0 006.79833 3.03836 59.98725 59.98725 0 007.11886 2.18484A36.03823 36.03823 0 00521.14466 451.63708zM527.11865 462.17356a30.733 30.733 0 00-5.74427-4.02758 50.50544 50.50544 0 00-6.18256-2.9052A49.61 49.61 0 00508.678 453.185a30.37681 30.37681 0 00-6.9559-.92266 30.38809 30.38809 0 005.74219 4.03292 49.61747 49.61747 0 006.18464 2.89986 50.50976 50.50976 0 006.51594 2.05043A30.73171 30.73171 0 00527.11865 462.17356zM531.84 470.28351a23.03949 23.03949 0 00-5.04515-3.32313 36.7945 36.7945 0 00-5.40508-2.17328 36.13625 36.13625 0 00-5.67792-1.30317 22.79483 22.79483 0 00-6.04116-.14238 22.7935 22.7935 0 005.04349 3.32857 36.13241 36.13241 0 005.40715 2.16783 36.778 36.778 0 005.67917 1.29763A23.052 23.052 0 00531.84 470.28351z"/><path fill="#8b9d36" d="M535.5669 477.56045a30.30313 30.30313 0 00-5.54564-4.21365 49.73338 49.73338 0 00-6.02416-3.108 48.86833 48.86833 0 00-6.38658-2.2713 29.963 29.963 0 00-6.86965-1.155 29.95218 29.95218 0 005.54316 4.219 48.84963 48.84963 0 006.02665 3.10278 49.72484 49.72484 0 006.38865 2.26591A30.30246 30.30246 0 00535.5669 477.56045zM514.42056 438.12268a21.32905 21.32905 0 00-.16545-6.81061 32.09171 32.09171 0 00-1.73535-6.19583 31.565 31.565 0 00-2.92459-5.73017 21.11559 21.11559 0 00-4.51024-5.10952 21.10313 21.10313 0 00.15757 6.81351 31.5932 31.5932 0 001.74281 6.19293 32.09483 32.09483 0 002.93247 5.72721A21.33191 21.33191 0 00514.42056 438.12268z"/><path fill="#50661a" d="M539.16317,480.23511l.84836-.01453c-.03724-2.31982-1.04456-57.029-11.98875-74.35677l-.71757.45416C538.12225,423.445,539.15408,479.66924,539.16317,480.23511Z"/><path fill="#50661a" d="M531.1802 413.67908a38.9178 38.9178 0 01-.2546-7.65833 68.8493 68.8493 0 01.82766-7.429c.39641-2.44985.93588-4.87535 1.57031-7.28068.6336-2.42119 1.43389-4.75069 2.28892-7.23195a10.61118 10.61118 0 01.54776 1.904 16.96992 16.96992 0 01.29939 1.93475 32.78713 32.78713 0 01.17249 3.84067 49.313 49.313 0 01-.69123 7.52714 54.70409 54.70409 0 01-1.74157 7.329A34.45956 34.45956 0 01531.1802 413.67908zM517.72826 379.03476a27.51615 27.51615 0 014.79055 6.15519 43.25693 43.25693 0 013.2107 6.74645 42.50825 42.50825 0 012.01524 7.194 27.21921 27.21921 0 01.42047 7.79082 27.21884 27.21884 0 01-4.798-6.1524 42.46832 42.46832 0 01-3.20323-6.74929 43.2562 43.2562 0 01-2.00778-7.19677A27.50227 27.50227 0 01517.72826 379.03476zM508.70943 392.978a63.3864 63.3864 0 016.30862 5.81289c1.94973 2.02115 3.8103 4.0875 5.63065 6.165l5.40839 6.20677c.90728 1.01638 1.82409 2.01788 2.79273 2.96652a12.75219 12.75219 0 003.30027 2.49308 5.72857 5.72857 0 01-2.25865-.05727 10.5747 10.5747 0 01-2.17613-.68445 21.01555 21.01555 0 01-3.87581-2.22231 38.0399 38.0399 0 01-6.3845-5.90645 50.40046 50.40046 0 01-5.07335-6.93081A36.07152 36.07152 0 01508.70943 392.978zM508.70943 406.92118a52.21057 52.21057 0 017.84244 4.82341 88.8451 88.8451 0 017.03635 5.71877 87.348 87.348 0 016.42638 6.39636 51.6237 51.6237 0 015.6124 7.30022 51.60268 51.60268 0 01-7.84658-4.81916 87.2774 87.2774 0 01-7.03262-5.723 88.84329 88.84329 0 01-6.42223-6.40062A52.205 52.205 0 01508.70943 406.92118zM509.62666 417.86112a51.6272 51.6272 0 017.9233 4.58208 87.80668 87.80668 0 017.14125 5.49811 86.29516 86.29516 0 016.5487 6.19132 51.04771 51.04771 0 015.75837 7.116 51.02238 51.02238 0 01-7.92745-4.57767 86.23858 86.23858 0 01-7.1371-5.50247 87.80115 87.80115 0 01-6.545-6.19568A51.60234 51.60234 0 01509.62666 417.86112zM510.23787 429.5549a47.9994 47.9994 0 017.93656 3.85016 81.28709 81.28709 0 017.21589 4.81548 79.92988 79.92988 0 016.6702 5.54617 47.42991 47.42991 0 015.94247 6.52076 47.47409 47.47409 0 01-7.93988-3.84554 79.92647 79.92647 0 01-7.21257-4.82015 81.33817 81.33817 0 01-6.66647-5.55077A47.99807 47.99807 0 01510.23787 429.5549zM509.62666 438.03861a53.4026 53.4026 0 018.30395 4.21625 90.96359 90.96359 0 017.5754 5.17582 89.36413 89.36413 0 017.02432 5.9021 52.7743 52.7743 0 016.2883 6.87074 52.779 52.779 0 01-8.30727-4.21164 89.36361 89.36361 0 01-7.57208-5.18043 90.9469 90.9469 0 01-7.02059-5.90666A53.39759 53.39759 0 01509.62666 438.03861zM507.48661 445.98731a69.61561 69.61561 0 018.68 4.8174c2.75582 1.76416 5.42207 3.62914 8.02157 5.57565 2.607 1.93517 5.14176 3.95269 7.63179 6.03738 2.51573 2.06682 4.89214 4.21947 7.495 6.35133a20.98675 20.98675 0 01-4.86021-1.41834 47.52931 47.52931 0 01-4.51314-2.17276 74.0737 74.0737 0 01-8.294-5.3972 85.51859 85.51859 0 01-7.53476-6.35837A54.16775 54.16775 0 01507.48661 445.98731zM504.88794 454.24176a71.59415 71.59415 0 019.42561 4.4792c3.01 1.67683 5.93127 3.47727 8.78537 5.37247q4.28177 2.84195 8.357 5.97663 2.037 1.57176 4.035 3.2a35.95757 35.95757 0 004.096 3.13637 7.91193 7.91193 0 01-2.648-.45478c-.85337-.25273-1.68185-.5602-2.50122-.88-1.63417-.64873-3.21319-1.39076-4.76194-2.17706a90.36889 90.36889 0 01-8.928-5.26689 102.06228 102.06228 0 01-8.31017-6.15866A63.16592 63.16592 0 01504.88794 454.24176zM533.81494 423.39028a42.24876 42.24876 0 011.21827-8.17448 70.99106 70.99106 0 012.34946-7.76065 69.87286 69.87286 0 013.20614-7.44747 41.79336 41.79336 0 014.34811-7.02971 41.79849 41.79849 0 01-1.21247 8.17645 69.87592 69.87592 0 01-2.35526 7.75867 71.0884 71.0884 0 01-3.21153 7.44551A42.249 42.249 0 01533.81494 423.39028zM535.627 432.93536a43.1704 43.1704 0 012.34614-8.02163 72.69886 72.69886 0 013.41181-7.46 71.489 71.489 0 014.21874-7.035 42.71166 42.71166 0 015.29477-6.46795 42.71145 42.71145 0 01-2.34074 8.02432 71.57466 71.57466 0 01-3.41721 7.45728 72.78577 72.78577 0 01-4.22371 7.03224A43.22564 43.22564 0 01535.627 432.93536zM536.99828 442.16581a47.28707 47.28707 0 013.4342-8.05313 80.1308 80.1308 0 014.43229-7.37859 78.72858 78.72858 0 015.18821-6.868 46.75787 46.75787 0 016.19582-6.187 46.753 46.753 0 01-3.42964 8.0564 78.63174 78.63174 0 01-4.43726 7.37533 80.04644 80.04644 0 01-5.19277 6.86482A47.28974 47.28974 0 01536.99828 442.16581zM538.003 452.34947a60.97721 60.97721 0 014.91661-8.6432q2.7411-4.09074 5.84959-7.88064 3.09813-3.7984 6.55534-7.30354a60.03083 60.03083 0 017.497-6.53377 60.02465 60.02465 0 01-4.91205 8.64682q-2.7411 4.09051-5.85373 7.877-3.10558 3.79289-6.5599 7.29991A60.90269 60.90269 0 01538.003 452.34947zM538.81863 462.90948a61.57826 61.57826 0 015.82222-8.12441q3.1684-3.80346 6.67144-7.26938 3.4931-3.47559 7.31334-6.62231a60.64844 60.64844 0 018.17043-5.75909 60.65059 60.65059 0 01-5.81807 8.12845q-3.16841 3.80307-6.67518 7.26534-3.49992 3.46929-7.31748 6.61821A61.55578 61.55578 0 01538.81863 462.90948zM539.315 469.68059a53.66711 53.66711 0 016.32562-6.8682 91.43559 91.43559 0 017.0521-5.90712 89.81455 89.81455 0 017.60194-5.17981 53.0496 53.0496 0 018.33588-4.20956 53.06557 53.06557 0 01-6.3223 6.87276 89.88758 89.88758 0 01-7.05542 5.90256 91.49888 91.49888 0 01-7.60566 5.1752A53.677 53.677 0 01539.315 469.68059zM539.587 475.33643a56.81054 56.81054 0 017.39-6.14451q3.87622-2.75556 7.9884-5.09865 4.10574-2.35461 8.4412-4.30721a56.14362 56.14362 0 019.04537-3.25144 56.15155 56.15155 0 01-7.38756 6.14944q-3.87624 2.75525-7.99089 5.09366-4.11009 2.34708-8.44411 4.3023A56.81892 56.81892 0 01539.587 475.33643zM539.37593 479.005a61.355 61.355 0 018.646-4.98005c2.96647-1.43213 5.991-2.70813 9.06485-3.85041q4.61018-1.715 9.38165-2.9955a60.46014 60.46014 0 019.805-1.855 60.46143 60.46143 0 01-8.644 4.98544q-4.45034 2.14771-9.06693 3.845c-3.07552 1.13783-6.20081 2.142-9.38373 2.99011A61.34606 61.34606 0 01539.37593 479.005z"/><path fill="#5e7c24" d="M540.8617,478.71279c.83655-1.39425,20.53956-34.22865,23.72681-42.7286l-.79568-.29792c-3.15909,8.42637-23.45431,42.2481-23.65959,42.58872Z"/><path fill="#5e7c24" d="M557.35521 418.08511a36.48217 36.48217 0 011.96175 6.57529 61.47145 61.47145 0 011.00265 6.66657 60.249 60.249 0 01.27616 6.73561 35.99 35.99 0 01-.69248 6.82772 36.02148 36.02148 0 01-1.96631-6.57493 60.34574 60.34574 0 01-.99809-6.667 61.47 61.47 0 01-.2716-6.736A36.44993 36.44993 0 01557.35521 418.08511zM549.86482 428.32671a34.79956 34.79956 0 012.54559 6.19956 58.44 58.44 0 011.59933 6.38129 57.54889 57.54889 0 01.88281 6.5189 34.417 34.417 0 01-.073 6.70238 34.38592 34.38592 0 01-2.55015-6.19868 57.55076 57.55076 0 01-1.59477-6.38222 58.537 58.537 0 01-.87825-6.51973A34.83118 34.83118 0 01549.86482 428.32671zM545.73772 440.24975a29.52708 29.52708 0 012.167 5.76246 49.05288 49.05288 0 011.21246 5.89868 48.22934 48.22934 0 01.49054 6.00171 29.15421 29.15421 0 01-.47271 6.13923 29.15519 29.15519 0 01-2.17157-5.76184 48.14861 48.14861 0 01-1.2079-5.89929 49.05181 49.05181 0 01-.486-6.00239A29.49737 29.49737 0 01545.73772 440.24975zM540.54039 452.15077a22.60427 22.60427 0 012.19727 4.9039 36.83634 36.83634 0 011.2473 5.06791 36.15411 36.15411 0 01.52869 5.192 22.34213 22.34213 0 01-.43 5.35755 22.325 22.325 0 01-2.20184-4.90313 36.21392 36.21392 0 01-1.24315-5.06869 36.89643 36.89643 0 01-.52413-5.19277A22.6039 22.6039 0 01540.54039 452.15077zM535.95468 459.58933a20.35105 20.35105 0 012.3196 4.30581 35.08977 35.08977 0 011.45835 4.46671 40.09667 40.09667 0 01.88074 4.58063c.09537.77748.18286 1.55061.24091 2.33867a17.40571 17.40571 0 00.25626 2.39466 4.70177 4.70177 0 01-.56393-.356l-.45779-.45872a8.46515 8.46515 0 01-.8007-1.0015A16.04078 16.04078 0 01538.057 473.717a23.85911 23.85911 0 01-1.61551-4.518 26.74364 26.74364 0 01-.76049-4.7043A17.71012 17.71012 0 01535.95468 459.58933zM561.80906 441.22778a29.25414 29.25414 0 015.16665-4.48023 47.87779 47.87779 0 015.71068-3.40534 47.03792 47.03792 0 016.12284-2.59177 28.92051 28.92051 0 016.67186-1.50661 28.91219 28.91219 0 01-5.16374 4.48536 47.04118 47.04118 0 01-5.71358 3.4002 47.85865 47.85865 0 01-6.12534 2.58664A29.25227 29.25227 0 01561.80906 441.22778zM556.73405 450.707a36.03755 36.03755 0 016.37248-4.17162 59.99982 59.99982 0 016.79625-3.04375 58.92709 58.92709 0 017.11679-2.19023 35.62783 35.62783 0 017.5443-1.05163 35.63441 35.63441 0 01-6.37 4.177 58.9369 58.9369 0 01-6.79833 3.03836 59.98725 59.98725 0 01-7.11886 2.18484A36.03823 36.03823 0 01556.73405 450.707zM550.76007 461.24345a30.733 30.733 0 015.74426-4.02758 50.50614 50.50614 0 016.18256-2.9052 49.609 49.609 0 016.51387-2.05577 30.37736 30.37736 0 016.9559-.92267 30.38764 30.38764 0 01-5.74219 4.03292 49.61658 49.61658 0 01-6.18463 2.89986 50.512 50.512 0 01-6.51595 2.05044A30.73114 30.73114 0 01550.76007 461.24345zM546.03876 469.3534a23.03949 23.03949 0 015.04515-3.32313A36.79671 36.79671 0 01556.489 463.857a36.13536 36.13536 0 015.67792-1.30316 22.79483 22.79483 0 016.04116-.14239 22.7935 22.7935 0 01-5.04349 3.32857 36.13246 36.13246 0 01-5.40715 2.16784 36.77659 36.77659 0 01-5.67917 1.29762A23.05113 23.05113 0 01546.03876 469.3534z"/><path fill="#5e7c24" d="M542.31181 476.63035a30.30353 30.30353 0 015.54564-4.21366 49.73277 49.73277 0 016.02417-3.108 48.86616 48.86616 0 016.38657-2.27129 29.96255 29.96255 0 016.86965-1.155 29.95184 29.95184 0 01-5.54316 4.219 48.85037 48.85037 0 01-6.02665 3.10279 49.72519 49.72519 0 01-6.38864 2.2659A30.30255 30.30255 0 01542.31181 476.63035zM563.45816 437.19258a21.32855 21.32855 0 01.16545-6.81062 32.09159 32.09159 0 011.73534-6.19582 31.565 31.565 0 012.92459-5.73017 21.11563 21.11563 0 014.51024-5.10953 21.1032 21.1032 0 01-.15757 6.81352 31.5933 31.5933 0 01-1.74281 6.19292 32.09486 32.09486 0 01-2.93246 5.72722A21.33273 21.33273 0 01563.45816 437.19258z"/><path fill="#8b9d36" d="M163.02585,479.77733l-.72846-.43781c.20528-.34061,20.5005-34.16325,23.65959-42.58871l.79568.29792C183.56541,445.54776,163.8624,478.38308,163.02585,479.77733Z"/><path fill="#8b9d36" d="M179.4765 419.01521a36.48308 36.48308 0 011.96175 6.5753 61.47142 61.47142 0 011.00264 6.66657 60.24653 60.24653 0 01.27617 6.73561 35.99012 35.99012 0 01-.69248 6.82772 36.02231 36.02231 0 01-1.96632-6.57493 60.34607 60.34607 0 01-.99808-6.667 61.4702 61.4702 0 01-.2716-6.736A36.4501 36.4501 0 01179.4765 419.01521zM171.9861 429.25682a34.79807 34.79807 0 012.54559 6.19956 58.44274 58.44274 0 011.59934 6.38128 57.55147 57.55147 0 01.88281 6.5189 34.41789 34.41789 0 01-.073 6.70239 34.38652 34.38652 0 01-2.55015-6.19868 57.55081 57.55081 0 01-1.59478-6.38222 58.53966 58.53966 0 01-.87824-6.51973A34.83116 34.83116 0 01171.9861 429.25682zM167.859 441.17986a29.52616 29.52616 0 012.167 5.76246 49.05236 49.05236 0 011.21247 5.89867 48.23156 48.23156 0 01.49054 6.00172 29.15421 29.15421 0 01-.47271 6.13923 29.15542 29.15542 0 01-2.17157-5.76184 48.14838 48.14838 0 01-1.2079-5.8993 49.05148 49.05148 0 01-.486-6.00239A29.49733 29.49733 0 01167.859 441.17986zM162.66168 453.08087a22.60456 22.60456 0 012.19727 4.90391 36.8345 36.8345 0 011.24729 5.06791 36.15268 36.15268 0 01.52869 5.192 22.34162 22.34162 0 01-.43 5.35755 22.32546 22.32546 0 01-2.20183-4.90314 36.21344 36.21344 0 01-1.24315-5.06868 36.89658 36.89658 0 01-.52413-5.19277A22.6035 22.6035 0 01162.66168 453.08087zM158.076 460.51943a20.35112 20.35112 0 012.3196 4.30582 35.09015 35.09015 0 011.45835 4.4667 40.09709 40.09709 0 01.88074 4.58063c.09537.77749.18286 1.55062.24091 2.33868a17.4054 17.4054 0 00.25626 2.39465 4.70036 4.70036 0 01-.56393-.356l-.45779-.45872a8.46515 8.46515 0 01-.8007-1.0015 16.04143 16.04143 0 01-1.23113-2.14265 23.86041 23.86041 0 01-1.61551-4.518 26.74389 26.74389 0 01-.76048-4.70431A17.7094 17.7094 0 01158.076 460.51943zM183.93035 442.15788a29.25526 29.25526 0 015.16664-4.48023 47.88063 47.88063 0 015.71068-3.40533 47.03864 47.03864 0 016.12285-2.59177 28.92 28.92 0 016.67186-1.50661 28.91219 28.91219 0 01-5.16374 4.48536 47.04259 47.04259 0 01-5.71359 3.4002 47.85792 47.85792 0 01-6.12533 2.58664A29.25226 29.25226 0 01183.93035 442.15788zM178.85534 451.63708a36.0386 36.0386 0 016.37247-4.17162 60.00173 60.00173 0 016.79626-3.04375 58.927 58.927 0 017.11679-2.19022 35.62718 35.62718 0 017.54429-1.05163 35.63453 35.63453 0 01-6.37 4.177 58.93767 58.93767 0 01-6.79833 3.03836 59.98725 59.98725 0 01-7.11886 2.18484A36.03823 36.03823 0 01178.85534 451.63708zM172.88135 462.17356a30.733 30.733 0 015.74427-4.02758 50.50544 50.50544 0 016.18256-2.9052 49.61 49.61 0 016.51387-2.05578 30.37681 30.37681 0 016.9559-.92266 30.38809 30.38809 0 01-5.74219 4.03292 49.61747 49.61747 0 01-6.18464 2.89986 50.50976 50.50976 0 01-6.51594 2.05043A30.73171 30.73171 0 01172.88135 462.17356zM168.16005 470.28351a23.03949 23.03949 0 015.04515-3.32313 36.7945 36.7945 0 015.40508-2.17328 36.13625 36.13625 0 015.67792-1.30317 22.79483 22.79483 0 016.04116-.14238 22.7935 22.7935 0 01-5.04349 3.32857 36.13241 36.13241 0 01-5.40715 2.16783 36.778 36.778 0 01-5.67917 1.29763A23.052 23.052 0 01168.16005 470.28351z"/><path fill="#8b9d36" d="M164.4331 477.56045a30.30313 30.30313 0 015.54564-4.21365 49.73338 49.73338 0 016.02416-3.108 48.86833 48.86833 0 016.38658-2.2713 29.963 29.963 0 016.86965-1.155 29.95218 29.95218 0 01-5.54316 4.219 48.84963 48.84963 0 01-6.02665 3.10278 49.72484 49.72484 0 01-6.38865 2.26591A30.30246 30.30246 0 01164.4331 477.56045zM185.57944 438.12268a21.32905 21.32905 0 01.16545-6.81061 32.09171 32.09171 0 011.73535-6.19583 31.565 31.565 0 012.92459-5.73017 21.11559 21.11559 0 014.51024-5.10952 21.10313 21.10313 0 01-.15757 6.81351 31.5932 31.5932 0 01-1.74281 6.19293 32.09483 32.09483 0 01-2.93247 5.72721A21.33191 21.33191 0 01185.57944 438.12268z"/><path fill="#50661a" d="M160.83683,480.23511l-.84836-.01453c.03724-2.31982,1.04456-57.029,11.98875-74.35677l.71757.45416C161.87775,423.445,160.84592,479.66924,160.83683,480.23511Z"/><path fill="#50661a" d="M168.8198 413.67908a38.9178 38.9178 0 00.2546-7.65833 68.8493 68.8493 0 00-.82766-7.429c-.39641-2.44985-.93588-4.87535-1.57031-7.28068-.6336-2.42119-1.43389-4.75069-2.28892-7.23195a10.61118 10.61118 0 00-.54776 1.904 16.96992 16.96992 0 00-.29939 1.93475 32.78713 32.78713 0 00-.17249 3.84067 49.313 49.313 0 00.69123 7.52714 54.70409 54.70409 0 001.74157 7.329A34.45956 34.45956 0 00168.8198 413.67908zM182.27174 379.03476a27.51615 27.51615 0 00-4.79055 6.15519 43.25693 43.25693 0 00-3.2107 6.74645 42.50825 42.50825 0 00-2.01524 7.194 27.21921 27.21921 0 00-.42047 7.79082 27.21884 27.21884 0 004.798-6.1524 42.46832 42.46832 0 003.20323-6.74929 43.2562 43.2562 0 002.00778-7.19677A27.50227 27.50227 0 00182.27174 379.03476zM191.29057 392.978a63.3864 63.3864 0 00-6.30862 5.81289c-1.94973 2.02115-3.8103 4.0875-5.63065 6.165l-5.40839 6.20677c-.90728 1.01638-1.82409 2.01788-2.79273 2.96652a12.75219 12.75219 0 01-3.30027 2.49308 5.72857 5.72857 0 002.25865-.05727 10.5747 10.5747 0 002.17613-.68445 21.01555 21.01555 0 003.87581-2.22231 38.0399 38.0399 0 006.3845-5.90645 50.40046 50.40046 0 005.07335-6.93081A36.07152 36.07152 0 00191.29057 392.978zM191.29057 406.92118a52.21057 52.21057 0 00-7.84244 4.82341 88.8451 88.8451 0 00-7.03635 5.71877 87.348 87.348 0 00-6.42638 6.39636 51.6237 51.6237 0 00-5.6124 7.30022 51.60268 51.60268 0 007.84658-4.81916 87.2774 87.2774 0 007.03262-5.723 88.84329 88.84329 0 006.42223-6.40062A52.205 52.205 0 00191.29057 406.92118zM190.37334 417.86112a51.6272 51.6272 0 00-7.9233 4.58208 87.80668 87.80668 0 00-7.14125 5.49811 86.29516 86.29516 0 00-6.5487 6.19132 51.04771 51.04771 0 00-5.75837 7.116 51.02238 51.02238 0 007.92745-4.57767 86.23858 86.23858 0 007.1371-5.50247 87.80115 87.80115 0 006.545-6.19568A51.60234 51.60234 0 00190.37334 417.86112zM189.76213 429.5549a47.9994 47.9994 0 00-7.93656 3.85016 81.28709 81.28709 0 00-7.21589 4.81548 79.92988 79.92988 0 00-6.6702 5.54617 47.42991 47.42991 0 00-5.94247 6.52076 47.47409 47.47409 0 007.93988-3.84554 79.92647 79.92647 0 007.21257-4.82015 81.33817 81.33817 0 006.66647-5.55077A47.99807 47.99807 0 00189.76213 429.5549zM190.37334 438.03861a53.4026 53.4026 0 00-8.304 4.21625 90.96359 90.96359 0 00-7.5754 5.17582 89.36413 89.36413 0 00-7.02432 5.9021 52.7743 52.7743 0 00-6.2883 6.87074 52.779 52.779 0 008.30727-4.21164 89.36361 89.36361 0 007.57208-5.18043 90.9469 90.9469 0 007.02059-5.90666A53.39759 53.39759 0 00190.37334 438.03861zM192.51339 445.98731a69.61561 69.61561 0 00-8.68 4.8174c-2.75582 1.76416-5.42207 3.62914-8.02157 5.57565-2.607 1.93517-5.14176 3.95269-7.63179 6.03738-2.51573 2.06682-4.89214 4.21947-7.49495 6.35133a20.98675 20.98675 0 004.86021-1.41834 47.52931 47.52931 0 004.51314-2.17276 74.0737 74.0737 0 008.294-5.3972 85.51859 85.51859 0 007.53476-6.35837A54.16775 54.16775 0 00192.51339 445.98731zM195.11206 454.24176a71.59415 71.59415 0 00-9.42561 4.4792c-3.01 1.67683-5.93127 3.47727-8.78537 5.37247q-4.28177 2.84195-8.357 5.97663-2.037 1.57176-4.035 3.2a35.95757 35.95757 0 01-4.096 3.13637 7.91193 7.91193 0 002.648-.45478c.85337-.25273 1.68185-.5602 2.50122-.88 1.63417-.64873 3.21319-1.39076 4.76194-2.17706a90.36889 90.36889 0 008.928-5.26689 102.06228 102.06228 0 008.31017-6.15866A63.16592 63.16592 0 00195.11206 454.24176zM166.18506 423.39028a42.24876 42.24876 0 00-1.21827-8.17448 70.99106 70.99106 0 00-2.34946-7.76065 69.87286 69.87286 0 00-3.20614-7.44747 41.79336 41.79336 0 00-4.34811-7.02971 41.79849 41.79849 0 001.21247 8.17645 69.87592 69.87592 0 002.35526 7.75867 71.0884 71.0884 0 003.21153 7.44551A42.249 42.249 0 00166.18506 423.39028zM164.373 432.93536a43.1704 43.1704 0 00-2.34614-8.02163 72.69886 72.69886 0 00-3.41181-7.46 71.489 71.489 0 00-4.21874-7.035 42.71166 42.71166 0 00-5.29477-6.46795 42.71145 42.71145 0 002.34074 8.02432 71.57466 71.57466 0 003.41721 7.45728 72.78577 72.78577 0 004.22371 7.03224A43.22564 43.22564 0 00164.373 432.93536zM163.00172 442.16581a47.28707 47.28707 0 00-3.4342-8.05313 80.1308 80.1308 0 00-4.43229-7.37859 78.72858 78.72858 0 00-5.18821-6.868 46.75787 46.75787 0 00-6.19582-6.187 46.753 46.753 0 003.42964 8.0564 78.63174 78.63174 0 004.43726 7.37533 80.04644 80.04644 0 005.19277 6.86482A47.28974 47.28974 0 00163.00172 442.16581zM161.997 452.34947a60.97721 60.97721 0 00-4.91661-8.6432q-2.7411-4.09074-5.84959-7.88064-3.09813-3.7984-6.55534-7.30354a60.03083 60.03083 0 00-7.497-6.53377 60.02465 60.02465 0 004.912 8.64682q2.7411 4.09051 5.85373 7.877 3.10558 3.79289 6.5599 7.29991A60.90269 60.90269 0 00161.997 452.34947zM161.18137 462.90948a61.57826 61.57826 0 00-5.82222-8.12441q-3.16841-3.80346-6.67144-7.26938-3.4931-3.47559-7.31334-6.62231a60.64844 60.64844 0 00-8.17043-5.75909 60.65059 60.65059 0 005.81807 8.12845q3.1684 3.80307 6.67518 7.26534 3.49992 3.46929 7.31748 6.61821A61.55578 61.55578 0 00161.18137 462.90948zM160.685 469.68059a53.66711 53.66711 0 00-6.32562-6.8682 91.43559 91.43559 0 00-7.0521-5.90712 89.81455 89.81455 0 00-7.60194-5.17981 53.0496 53.0496 0 00-8.33588-4.20956 53.06557 53.06557 0 006.3223 6.87276 89.88758 89.88758 0 007.05542 5.90256 91.49888 91.49888 0 007.60566 5.1752A53.677 53.677 0 00160.685 469.68059zM160.413 475.33643a56.81054 56.81054 0 00-7.39005-6.14451q-3.87623-2.75556-7.9884-5.09865-4.10574-2.35461-8.4412-4.30721a56.14362 56.14362 0 00-9.04537-3.25144 56.15155 56.15155 0 007.38756 6.14944q3.87624 2.75525 7.99089 5.09366 4.11009 2.34708 8.44411 4.3023A56.81892 56.81892 0 00160.413 475.33643zM160.62407 479.005A61.355 61.355 0 00151.978 474.025c-2.96647-1.43213-5.991-2.70813-9.06485-3.85041q-4.61017-1.715-9.38165-2.9955a60.46014 60.46014 0 00-9.805-1.855 60.46143 60.46143 0 008.644 4.98544q4.45033 2.14771 9.06693 3.845c3.07552 1.13783 6.20081 2.142 9.38373 2.99011A61.34606 61.34606 0 00160.62407 479.005z"/><path fill="#5e7c24" d="M159.1383,478.71279c-.83655-1.39425-20.53956-34.22865-23.72681-42.7286l.79568-.29792c3.15909,8.42637,23.45431,42.2481,23.65959,42.58872Z"/><path fill="#5e7c24" d="M142.64479 418.08511a36.48217 36.48217 0 00-1.96175 6.57529 61.47145 61.47145 0 00-1.00265 6.66657 60.249 60.249 0 00-.27616 6.73561 35.99 35.99 0 00.69248 6.82772 36.02148 36.02148 0 001.96631-6.57493 60.34574 60.34574 0 00.99809-6.667 61.47 61.47 0 00.2716-6.736A36.44993 36.44993 0 00142.64479 418.08511zM150.13518 428.32671a34.79956 34.79956 0 00-2.54559 6.19956 58.44 58.44 0 00-1.59933 6.38129 57.54889 57.54889 0 00-.88281 6.5189 34.417 34.417 0 00.073 6.70238 34.38592 34.38592 0 002.55015-6.19868 57.55076 57.55076 0 001.59477-6.38222 58.537 58.537 0 00.87825-6.51973A34.83118 34.83118 0 00150.13518 428.32671zM154.26228 440.24975a29.52708 29.52708 0 00-2.167 5.76246 49.05288 49.05288 0 00-1.21246 5.89868 48.22934 48.22934 0 00-.49054 6.00171 29.15421 29.15421 0 00.47271 6.13923 29.15519 29.15519 0 002.17157-5.76184 48.14861 48.14861 0 001.2079-5.89929 49.05181 49.05181 0 00.486-6.00239A29.49737 29.49737 0 00154.26228 440.24975zM159.45961 452.15077a22.60427 22.60427 0 00-2.19727 4.9039 36.83634 36.83634 0 00-1.2473 5.06791 36.15411 36.15411 0 00-.52869 5.192 22.34213 22.34213 0 00.43 5.35755 22.325 22.325 0 002.20184-4.90313 36.21392 36.21392 0 001.24315-5.06869 36.89643 36.89643 0 00.52413-5.19277A22.6039 22.6039 0 00159.45961 452.15077zM164.04532 459.58933a20.35105 20.35105 0 00-2.3196 4.30581 35.08977 35.08977 0 00-1.45835 4.46671 40.09667 40.09667 0 00-.88074 4.58063c-.09537.77748-.18286 1.55061-.24091 2.33867a17.40571 17.40571 0 01-.25626 2.39466 4.70177 4.70177 0 00.56393-.356l.45779-.45872a8.46515 8.46515 0 00.8007-1.0015A16.04078 16.04078 0 00161.943 473.717a23.85911 23.85911 0 001.61551-4.518 26.74364 26.74364 0 00.76049-4.7043A17.71012 17.71012 0 00164.04532 459.58933zM138.19094 441.22778a29.25414 29.25414 0 00-5.16665-4.48023 47.87779 47.87779 0 00-5.71068-3.40534 47.03792 47.03792 0 00-6.12284-2.59177 28.92051 28.92051 0 00-6.67186-1.50661 28.91219 28.91219 0 005.16374 4.48536 47.04118 47.04118 0 005.71358 3.4002 47.85865 47.85865 0 006.12534 2.58664A29.25227 29.25227 0 00138.19094 441.22778zM143.266 450.707a36.03755 36.03755 0 00-6.37248-4.17162 59.99982 59.99982 0 00-6.79625-3.04375 58.92709 58.92709 0 00-7.11679-2.19023 35.62783 35.62783 0 00-7.5443-1.05163 35.63441 35.63441 0 006.37 4.177 58.9369 58.9369 0 006.79833 3.03836 59.98725 59.98725 0 007.11886 2.18484A36.03823 36.03823 0 00143.266 450.707zM149.23993 461.24345a30.733 30.733 0 00-5.74426-4.02758 50.50614 50.50614 0 00-6.18256-2.9052 49.609 49.609 0 00-6.51387-2.05577 30.37736 30.37736 0 00-6.9559-.92267 30.38764 30.38764 0 005.74219 4.03292 49.61658 49.61658 0 006.18463 2.89986 50.512 50.512 0 006.516 2.05044A30.73114 30.73114 0 00149.23993 461.24345zM153.96124 469.3534a23.03949 23.03949 0 00-5.04515-3.32313A36.79671 36.79671 0 00143.511 463.857a36.13536 36.13536 0 00-5.67792-1.30316 22.79483 22.79483 0 00-6.04116-.14239 22.7935 22.7935 0 005.04349 3.32857 36.13246 36.13246 0 005.40715 2.16784 36.77659 36.77659 0 005.67917 1.29762A23.05113 23.05113 0 00153.96124 469.3534z"/><path fill="#5e7c24" d="M157.68819 476.63035a30.30353 30.30353 0 00-5.54564-4.21366 49.73277 49.73277 0 00-6.02417-3.108 48.86616 48.86616 0 00-6.38657-2.27129 29.96255 29.96255 0 00-6.86965-1.155 29.95184 29.95184 0 005.54316 4.219 48.85037 48.85037 0 006.02665 3.10279 49.72519 49.72519 0 006.38864 2.2659A30.30255 30.30255 0 00157.68819 476.63035zM136.54184 437.19258a21.32855 21.32855 0 00-.16545-6.81062 32.09159 32.09159 0 00-1.73534-6.19582 31.565 31.565 0 00-2.92459-5.73017 21.11563 21.11563 0 00-4.51024-5.10953 21.1032 21.1032 0 00.15757 6.81352 31.5933 31.5933 0 001.74281 6.19292 32.09486 32.09486 0 002.93246 5.72722A21.33273 21.33273 0 00136.54184 437.19258z"/><circle cx="289.899" cy="180.137" r="25.063" fill="#f9e0c0"/><circle cx="435.532" cy="303.352" r="25.063" fill="#f9e0c0"/><path fill="#ffba55" d="M445.35274,300.40734h-1.9654v-3.93079a7.85558,7.85558,0,0,0-15.71115,0v3.93079h-1.9654a1.96151,1.96151,0,0,0-1.9654,1.9654v13.75173a1.95638,1.95638,0,0,0,1.9654,1.95938h19.642a1.95637,1.95637,0,0,0,1.96539-1.95938V302.37274A1.96151,1.96151,0,0,0,445.35274,300.40734ZM435.5318,311.208a2.94507,2.94507,0,1,1,2.94507-2.94507A2.94475,2.94475,0,0,1,435.5318,311.208Zm3.93079-10.80061H431.601v-3.93079a3.9308,3.9308,0,1,1,7.86159,0Z"/><rect width="465.054" height="1.859" x="115.185" y="479.305" fill="#935b50"/><polygon fill="#935b50" points="195.031 479.868 210.845 402.033 229.222 402.033 200.941 479.868 195.031 479.868"/><polygon fill="#935b50" points="494.244 402.033 511.298 479.868 502.893 479.868 475.24 402.033 494.244 402.033"/><rect width="317.923" height="19.42" x="195.324" y="382.613" fill="#c38f86" rx="9.71"/><polygon fill="#f9977a" points="325.639 453.324 324.305 466.617 347.388 477.9 311.939 477.895 311.943 453.322 325.639 453.324"/><polygon fill="#f9977a" points="368.154 453.331 366.82 466.624 389.903 477.908 354.454 477.902 354.458 453.329 368.154 453.331"/><path fill="#6c7fd8" d="M393.4613 479.11631v-.0811a3.3569 3.3569 0 00-1.84563-2.998l-23.95939-12.08a1.119 1.119 0 00-1.39826.32686l-4.68466 6.23277a1.119 1.119 0 01-1.47033.28712l-5.49681-3.29932a1.119 1.119 0 00-1.69481.95923l-.00178 10.6457a1.119 1.119 0 001.1188 1.1192l38.31368.0064A1.119 1.119 0 00393.4613 479.11631zM350.94586 479.10921l0-.08111a3.3569 3.3569 0 00-1.84563-2.998l-23.9594-12.08a1.11905 1.11905 0 00-1.39826.32686l-4.68466 6.23278a1.119 1.119 0 01-1.47032.28711l-5.49681-3.29932a1.119 1.119 0 00-1.69488.95923l-.00177 10.6457a1.119 1.119 0 001.1188 1.11921l38.31374.0064A1.119 1.119 0 00350.94586 479.10921z"/><path fill="#f73c4f" d="M370.51485,288.68453s2.12008,34.41523,2.11872,42.50655l-.008,47.74421q-.00042,2.94924-.2906,5.88782l.95409,71.79622a2.82311,2.82311,0,0,1-2.81,2.54564,15.89678,15.89678,0,0,1-10.50951,2.53608,15.34382,15.34382,0,0,1-6.701-2.539c-.72967-.332-2.82354-1.35759-2.82277-2.82352q.00006-.10259.00751-.20492l-2.7337-60.61606a59.99062,59.99062,0,0,0-1.11018-16.63574l-17.79142-85.12244Z"/><path fill="#f73c4f" d="M317.4554,459.5351c-2.63918-.547-6.0826-1.60875-6.89054-2.417a2.81429,2.81429,0,0,1-.82655-1.9964v0l.00822-49.24063a128.325,128.325,0,0,1,3.231-28.59305,18.97325,18.97325,0,0,0,.456-5.1307c-.60141-12.67956-2.84679-68.28633,3.47651-78.39987l40.43771-2.97887L328.48867,456.51071C328.257,457.867,322.32279,460.54388,317.4554,459.5351Z"/><path fill="#b02336" d="M324.36756,354.39737l.21552-.3396c-6.84767-4.35065-8.46123-17.34117-8.47673-17.47122l-.39983.04651C315.722,336.766,317.35686,349.9448,324.36756,354.39737Z"/><path fill="#065082" d="M339.44644,300.71825c23.077.00386,31.61408-6.95955,31.72183-7.05073l-.261-.30671c-.13686.11449-14.12858,11.48665-54.96248,4.91286l-.06412.39785A148.83962,148.83962,0,0,0,339.44644,300.71825Z"/><rect width="69.344" height=".404" x="315.376" y="333.145" fill="#b02336" transform="rotate(-80.352 350.048 333.347)"/><polygon fill="#b02336" points="352.888 316.084 353.131 315.761 350.095 313.473 352.356 299.789 351.959 299.722 349.659 313.648 352.888 316.084"/><path fill="#b02336" d="M324.36081 359.81435l.22715-.33183c-5.53669-3.79241-8.46615-11.25557-8.49524-11.33031l-.37652.14551C315.74523 348.3734 318.71835 355.95106 324.36081 359.81435zM360.89479 412.33562l.21552-.3396c-6.84861-4.35162-8.46223-17.34214-8.47773-17.47219l-.39983.04651C352.24826 394.70331 353.88315 407.88208 360.89479 412.33562zM360.888 417.75163l.22715-.33186c-5.53958-3.79436-8.46714-11.25557-8.49623-11.33031l-.37653.14551C352.27152 406.31068 355.24564 413.88839 360.888 417.75163z"/><path fill="#f9977a" d="M360.46254,170.83475l-.60782,8.79743a50.54119,50.54119,0,0,0,.54217,10.67866c.63989,4.44958-5.23609,11.47746-7.37637,11.56485v8.84987c.54891,6.09717-3.46749,11.0384-7.70185,11.6043-4.85794.64928-10.83452-4.34917-10.5114-11.6043V190.02741s-7.442-1.3709-3.13349-8.71506a31.65428,31.65428,0,0,0,4.40648-14.10059l8.02947-6.07111Z"/><path fill="#8b9d36" d="M302.00264,255.03872s-.90672-18.67045,5.74121-32.48856a19.47227,19.47227,0,0,1,8.30523-8.69269c4.16907-2.24976,11.32349-6.18133,18.75819-8.15864-.06269,5.492,4.28824,6.57947,9.49832,6.472,4.87712-.10059,8.495.02037,8.71494-5.10532,11.54184,2.59328,17.22608,7.19011,19.209,11.38183,3.94095,8.33049,4.53378,25.7976,4.53378,25.7976l-6.1016,1.20926s1.53062,46.08635.32127,51.05769c-5.96489,1.35878-12.17529,5.96531-19.588,6.623-13.84971,1.22885-26.53162-3.08592-36.2654-4.54293,1.2673-5.66258,2.42216-11.71424,3.38525-18.1302a259.2776,259.2776,0,0,0,2.56723-25.91578Z"/><path fill="#1e1d22" d="M342.24951 174.62062a.54414.54414 0 01-.27-1.0166 7.07666 7.07666 0 016.29639-.01074.54377.54377 0 01-.498.9668c-.02783-.0127-2.8164-1.40918-5.25928-.01074A.54812.54812 0 01342.24951 174.62062zM353.02148 174.62062a.544.544 0 01-.2705-1.0166 7.07316 7.07316 0 016.2959-.01074.54355.54355 0 01-.49708.9668 6.06644 6.06644 0 00-5.25976-.01074A.54772.54772 0 01353.02148 174.62062zM356.44777 181.76936a1.633 1.633 0 000-3.264 1.633 1.633 0 000 3.264zM345.2848 181.67144a1.633 1.633 0 000-3.264 1.633 1.633 0 000 3.264z"/><path fill="#dd765e" d="M351.64966 178.55861a14.37145 14.37145 0 012.26712 4.45362 6.61658 6.61658 0 01.3035 2.54785 2.23106 2.23106 0 01-.50708 1.2373 1.57947 1.57947 0 01-1.18226.48828 1.589 1.589 0 00.93387-.68017 2.12114 2.12114 0 00.257-1.08106 8.55692 8.55692 0 00-.41907-2.33154C352.84558 181.64064 352.21439 180.12746 351.64966 178.55861zM353.02054 201.87576s-5.87525-.30007-8.71495-2.98974c0 0 3.62307 7.20034 8.71495 8.17955z"/><path fill="#1e1d22" d="M364.771,168.191s-.09792-4.01476-7.14822-5.77733-8.42118-5.67941-12.48489-4.60228a13.35276,13.35276,0,0,0-6.60966,4.60228s-12.76244-1.95259-6.57706,18.412c0,0,4.61865,5.38273,5.10825.58461s1.56673-13.02346,4.21059-15.17772,6.75654,0,8.32327,1.175,11.35881,8.12742,12.338,7.5399S366.82737,173.185,364.771,168.191Z"/><polygon fill="#8b9d36" points="334.807 205.699 344.306 212.171 339.556 218.7 329.237 207.526 334.807 205.699"/><polygon fill="#8b9d36" points="344.306 212.171 353.021 207.066 357.02 208.11 347.809 217.696 344.306 212.171"/><path fill="#5e7c24" d="M329.23715,207.5259c1.81119,1.77832,3.60987,3.56787,5.36618,5.39648l2.64572,2.73242c.88831.90528,1.74024,1.84375,2.61216,2.76368l-.64029.03759c1.57538-2.18212,3.11111-4.39257,4.719-6.55078l.39893-.53564.34854.55908,3.46017,5.55225-.62713-.063c1.549-1.58447,3.13952-3.12842,4.70727-4.69483q2.36756-2.33423,4.79273-4.61279-2.178,2.51588-4.4184,4.97266c-1.50262,1.62842-2.98242,3.27929-4.50381,4.89013l-.34858.36914-.2788-.43212-3.547-5.49707.74722.02392c-1.55813,2.19434-3.18838,4.33643-4.779,6.50733l-.30258.41308-.33795-.376c-.848-.94189-1.71589-1.86572-2.54746-2.82324l-2.51388-2.85449C332.50674,211.40773,330.86569,209.47268,329.23715,207.5259Z"/><path fill="#5e7c24" d="M344.3056 212.17092c1.85865 7.126 3.33286 14.34814 4.64374 21.59668q1.94764 10.87793 3.11368 21.8833a202.15652 202.15652 0 011.14389 22.082 99.03634 99.03634 0 01-2.33737 21.94922l.83947-5.45361c.25156-1.81885.32053-3.66163.4896-5.4878.20471-1.82519.19076-3.6665.25357-5.501l.0741-2.75245c.02551-.917-.02573-1.83593-.03482-2.7539-.03293-7.34473-.59205-14.68115-1.35257-21.98731-.69022-7.31738-1.74674-14.59668-2.89179-21.85986-.56055-3.63428-1.18988-7.2583-1.8566-10.87549C345.75378 219.38723 345.04712 215.77639 344.3056 212.17092zM370.66177 245.45412c-.30609-1.41162-.53085-2.832-.74325-4.25391-.22086-1.42089-.38346-2.84765-.54578-4.2749-.14471-1.4292-.2879-2.8584-.37366-4.29345-.09323-1.43457-.17483-2.87061-.17361-4.31495.30725 1.41163.53168 2.832.74454 4.25391.22027 1.4209.38315 2.84766.54449 4.2749.14368 1.4292.28717 2.8584.37235 4.29395C370.58047 242.57375 370.6618 244.00979 370.66177 245.45412z"/><polygon fill="#935b50" points="371.513 240.393 388.084 240.393 375.006 265.114 358.614 265.564 371.513 240.393"/><path fill="#f9977a" d="M321.08206,254.54606V262.787l30.81375-9.67408s2.59767-6.539,11.19686-5.64322l.98532,1.70192s11.64474.08958,11.55516,2.1498l-.627.80617s3.49444.17915.62753,2.59767c0,0,.98481,1.88108-2.06073,2.77682s-8.50961,2.329-8.50961,2.329a4.07613,4.07613,0,0,0,3.583.7166,15.44859,15.44859,0,0,1,3.2247-.7166,1.37165,1.37165,0,0,1-.7166,2.1498c-1.70192.627-3.85172,1.88107-4.837,1.88107s-10.30111,1.4332-10.30111,1.4332L318.5215,281.93a10.48716,10.48716,0,0,1-14.73692-9.32644l-.43834-17.69924Z"/><path fill="#6c7fd8" d="M379.30572,245.36464a1.12036,1.12036,0,0,0,0-2.23937,1.12036,1.12036,0,0,0,0,2.23937Z"/><path fill="#f9977a" d="M386.04637,244.245s2.26685,2.26063-2.88893,8.73355a2.9318,2.9318,0,0,1-.80618,2.37374,1.77437,1.77437,0,0,1,0,2.19458,2.13251,2.13251,0,0,1-.60463,2.41852s-.13436,2.75443-1.94825,2.75443H376.2726s-1.11605-.84637,0-1.478c0,0-2.65386-.13436-.63894-2.01543,0,0-1.20977-1.34362.60412-2.68725a1.66728,1.66728,0,0,1,.52551-2.55288,38.95,38.95,0,0,0,4.66275-1.00772Z"/><path fill="#dd765e" d="M316.245 266.72805a8.93086 8.93086 0 012.00418-2.48194 6.22835 6.22835 0 012.83285-1.459 11.693 11.693 0 00-2.58969 1.7417A28.4462 28.4462 0 00316.245 266.72805zM375.00613 252.12746a30.89771 30.89771 0 01-3.49343.18652 30.56073 30.56073 0 01-3.49341-.18652 30.67289 30.67289 0 013.49341-.18652A31.01236 31.01236 0 01375.00613 252.12746zM364.078 249.17141a5.01243 5.01243 0 01-1.38842.18652 4.93979 4.93979 0 01-1.3884-.18652 4.957 4.957 0 011.3884-.186A5.02983 5.02983 0 01364.078 249.17141zM375.63367 254.72512a29.579 29.579 0 01-3.387.499 29.25379 29.25379 0 01-3.42117.12793 29.252 29.252 0 013.387-.499A29.68813 29.68813 0 01375.63367 254.72512zM381.42606 252.97854a.89287.89287 0 01.86715-.45118 1.4835 1.4835 0 01.48444.13477 1.10031 1.10031 0 01.37979.31641c-.34091-.00586-.60974-.082-.88425-.07911A2.38447 2.38447 0 00381.42606 252.97854zM376.23779 256.53908a24.58584 24.58584 0 013.02121-.77637 24.31177 24.31177 0 013.09226-.41064 24.22286 24.22286 0 01-3.02121.77637A24.584 24.584 0 01376.23779 256.53908zM375.63367 259.22658c1.0939-.40039 2.21682-.66553 3.3341-.95361l1.68979-.37012c.56418-.1206 1.13431-.209 1.6937-.356a8.3768 8.3768 0 01-1.62247.63428c-.5535.17188-1.11581.30713-1.67493.45459A26.94779 26.94779 0 01375.63367 259.22658zM376.27261 261.24172a24.38451 24.38451 0 012.71332-.75195c.91782-.18848 1.82816-.37207 2.76071-.52442a11.60873 11.60873 0 01-2.68014.88819A17.06277 17.06277 0 01376.27261 261.24172z"/><path fill="#5e7c24" d="M321.08206 254.54592c-.06744-1.43408-.03409-2.86475.02362-4.29395.05084-1.43017.176-2.85547.31922-4.27929.1622-1.42188.35211-2.84278.635-4.25a19.32965 19.32965 0 011.19345-4.13526c-.13776.70654-.2731 1.40039-.35636 2.1084q-.15687 1.0547-.26974 2.11523l-.46076 4.24219c-.161 1.41455-.30471 2.83106-.49124 4.24561C321.49887 251.71486 321.3219 253.13088 321.08206 254.54592zM344.52075 227.127a1.396 1.396 0 000-2.79032 1.396 1.396 0 000 2.79032zM346.19494 237.84182a1.396 1.396 0 000-2.79032 1.396 1.396 0 000 2.79032zM348.204 249.22633a1.396 1.396 0 000-2.79032 1.396 1.396 0 000 2.79032zM350.213 274.33921a1.396 1.396 0 000-2.79032 1.396 1.396 0 000 2.79032zM350.213 286.39339a1.396 1.396 0 000-2.79032 1.396 1.396 0 000 2.79032zM348.87365 296.77338a1.396 1.396 0 000-2.79032 1.396 1.396 0 000 2.79032z"/><path fill="#dd2f22" d="M348.98941,191.02929s2.8965,2.66086,5.32047.81925"/><path fill="#1e1d22" d="M343.51553,189.07619a5.25319,5.25319,0,0,0,3.87964-.70019,5.80948,5.80948,0,0,1,2.5455-.84131,5.46868,5.46868,0,0,1,1.42823.07568,4.63065,4.63065,0,0,1,1.478.51758l-.71777-.19971c.22913-.00439.45825-.00635.68738-.001l-.7182.20019a4.45743,4.45743,0,0,1,.769-.33887,4.6054,4.6054,0,0,1,.709-.18017,5.51651,5.51651,0,0,1,1.42878-.07715,5.80667,5.80667,0,0,1,2.54684.84131,4.45526,4.45526,0,0,0,1.71429.6958,6.0688,6.0688,0,0,0,2.16391.00781,4.46046,4.46046,0,0,1-4.71835,1.27588,5.105,5.105,0,0,0-1.76694-.21143,4.682,4.682,0,0,0-.791.13623c-.12738.03272-.248.08008-.36664.11963a2.51266,2.51266,0,0,0-.25208.11231l-.71856.20019c-.22913.00537-.45825.00391-.68738-.001l-.71814-.19971a2.41548,2.41548,0,0,0-.25223-.1123c-.11871-.03956-.23861-.08985-.36645-.12159a4.788,4.788,0,0,0-.79157-.13672,5.08652,5.08652,0,0,0-1.76828.21094A4.46731,4.46731,0,0,1,343.51553,189.07619Z"/><circle cx="510.356" cy="191.764" r="74.824" fill="#ffba55"/><path fill="#5e7c24" d="M532.82972 179.5987a.84.84 0 00-.84-.84H516.795a.84.84 0 00-.84.84v.10886a.84.84 0 00.84.84h5.53716a5.10326 5.10326 0 014.74727 3.24672.848.848 0 01-.78013 1.16577H516.795a.84.84 0 00-.84.84v.10884a.84.84 0 00.84.84h9.31776a.84805.84805 0 01.74233 1.2475 5.10037 5.10037 0 01-4.52293 2.74758H517.6894a.84.84 0 00-.84.84v.6589a.84.84 0 00.17236.50976l8.66472 11.34836a.84.84 0 001.17722.158l.08649-.066a.84.84 0 00.158-1.17758l-6.97407-9.13281a.84.84 0 01.66761-1.34981h2.57137a.94288.94288 0 00.23013-.02821 7.155 7.155 0 005.38372-5.08869.86075.86075 0 01.822-.667h2.18078a.84.84 0 00.84-.84v-.10884a.84.84 0 00-.84-.84h-2.04115a.86419.86419 0 01-.85865-.67058 6.82125 6.82125 0 00-1.88607-3.51526c-.08009-.08009-.16663-.151-.24994-.22665h5.03581a.84.84 0 00.84-.84zM553.31712 179.5987a.84.84 0 00-.84-.84H537.28236a.84.84 0 00-.84.84v.10886a.84.84 0 00.84.84h5.53716a5.10326 5.10326 0 014.74728 3.24672.848.848 0 01-.78014 1.16577h-9.5043a.84.84 0 00-.84.84v.10884a.84.84 0 00.84.84h9.31777a.84806.84806 0 01.74233 1.2475 5.10038 5.10038 0 01-4.52294 2.74758h-4.64273a.84.84 0 00-.84.84v.6589a.84.84 0 00.17236.50976l8.66473 11.34836a.84.84 0 001.17721.158l.0865-.066a.84.84 0 00.158-1.17758l-6.97407-9.13281a.84.84 0 01.66761-1.34981h2.57137a.94288.94288 0 00.23013-.02821 7.155 7.155 0 005.38372-5.08869.86074.86074 0 01.822-.667h2.18078a.84.84 0 00.84-.84v-.10884a.84.84 0 00-.84-.84H550.436a.86419.86419 0 01-.85864-.67058 6.82132 6.82132 0 00-1.88607-3.51526c-.08009-.08009-.16664-.151-.25-.22665h5.03582a.84.84 0 00.84-.84z"/><circle cx="526.017" cy="231.17" r="17.9" fill="#f9e0c0"/><path fill="#6c7fd8" d="M521.88672,240.12941l-.0166-.001a1.64746,1.64746,0,0,1-1.19043-.52442l-5.93164-6.35547a1.65068,1.65068,0,0,1,2.41406-2.25195l4.74805,5.08692,12.98437-13.37207a1.65124,1.65124,0,0,1,2.36914,2.30078l-14.19238,14.61621A1.65187,1.65187,0,0,1,521.88672,240.12941Z"/><rect width="82.809" height="4.127" x="469.288" y="156.409" fill="#f9e0c0"/><rect width="82.81" height="4.127" x="469.687" y="166.426" fill="#f9e0c0"/><rect width="111.23" height="74.71" x="392.09" y="161.418" fill="#f73c4f" rx="4.641"/><rect width="63.969" height="4.65" x="397.103" y="166.731" fill="#f9e0c0"/><rect width="111.23" height="17.902" x="392.09" y="175.262" fill="#f9e0c0" transform="rotate(-180 447.705 184.213)"/><rect width="26.495" height="4.65" x="468.71" y="211.844" fill="#ffba55"/><rect width="25.897" height="4.65" x="456.06" y="223.828" fill="#ffba55"/><rect width="14.799" height="4.65" x="435.532" y="223.828" fill="#ffba55"/><rect width="14.799" height="4.65" x="449.137" y="211.844" fill="#ffba55"/><path fill="#ffba55" d="M404.97927 230.44c8.95921 0 8.97405-13.92366 0-13.92366-8.95921 0-8.974 13.92366 0 13.92366zM302.16194 162.23547a1 1 0 00-1-1H278.63539a1 1 0 00-1 1v.6a1 1 0 001 1h8.26886a7.41915 7.41915 0 017.0512 5.14359.993.993 0 01-.965 1.26972H278.63539a1 1 0 00-1 1v.6a1 1 0 001 1h14.11885a1.00674 1.00674 0 01.91374 1.42137 7.41646 7.41646 0 01-6.76373 4.38527h-6.96886a1 1 0 00-1 1v1.25325a1 1 0 00.20519.60686l12.77306 16.72912a1 1 0 001.40144.18813l.47694-.364a1 1 0 00.18814-1.40189l-10.54161-13.80462a1 1 0 01.79478-1.60691l4.21678 0a1.1125 1.1125 0 00.26889-.03275 10.38461 10.38461 0 007.91635-7.6395.98154.98154 0 01.96393-.7344h3.56266a1 1 0 001-1v-.6a1 1 0 00-1-1h-3.42425a.9828.9828 0 01-.97656-.79 9.91308 9.91308 0 00-2.77609-5.29394c-.11641-.11641-.2422-.2195-.36328-.32942h7.54018a1 1 0 001-1z"/></svg>